<?xml version="1.0" encoding="utf-8"?>
<!-- Generator: Adobe Illustrator 16.0.0, SVG Export Plug-In . SVG Version: 6.00 Build 0)  -->
<!DOCTYPE svg PUBLIC "-//W3C//DTD SVG 1.1//EN" "http://www.w3.org/Graphics/SVG/1.1/DTD/svg11.dtd">
<svg version="1.1" id="Layer_1" xmlns="http://www.w3.org/2000/svg" xmlns:xlink="http://www.w3.org/1999/xlink" x="0px" y="0px"
	 width="407px" height="715px" viewBox="0 0 407 715" enable-background="new 0 0 407 715" xml:space="preserve">
<g>
	<line fill="#00AEEF" stroke="#231F20" stroke-width="100" stroke-miterlimit="10" x1="159" y1="234.634" x2="159" y2="503.935"/>
	<path fill="#00AEEF" stroke="#231F20" stroke-width="100" stroke-miterlimit="10" d="M159,238.384
		c0-84.113,71.016-152.299,158.621-152.299"/>
	<path fill="#00AEEF" stroke="#231F20" stroke-width="100" stroke-miterlimit="10" d="M6.701,657.556
		C90.813,657.556,159,586.538,159,498.935"/>
	
		<line fill="#00AEEF" stroke="#231F20" stroke-width="70" stroke-miterlimit="10" x1="193.058" y1="318.347" x2="284.058" y2="318.347"/>
</g>
<path fill="#00AEEF" stroke="#231F20" stroke-miterlimit="10" d="M352.311,116.622"/>
<path fill="#232323" d="M317.559,136.094v-14.112c0,0,15.856-6.931,34.377-5.511"/>
<polyline fill="#1E1E1E" points="284.058,353.333 318.748,333.883 284.058,333.883 "/>
<path fill="#172326" d="M41.391,588.092l-34.69,19.587c0,0,14.748,2.715,34.69-4.752"/>
<linearGradient id="SVGID_1_" gradientUnits="userSpaceOnUse" x1="206.5986" y1="674.6885" x2="188.2779" y2="68.8164">
	<stop  offset="0" style="stop-color:#17479E"/>
	<stop  offset="0.009" style="stop-color:#194BA0"/>
	<stop  offset="0.0607" style="stop-color:#2B61AE"/>
	<stop  offset="0.1156" style="stop-color:#3B74BA"/>
	<stop  offset="0.1736" style="stop-color:#4784C5"/>
	<stop  offset="0.2357" style="stop-color:#5092CE"/>
	<stop  offset="0.3038" style="stop-color:#569DD5"/>
	<stop  offset="0.3824" style="stop-color:#5AA3D9"/>
	<stop  offset="0.496" style="stop-color:#5BA5DA"/>
	<stop  offset="0.5624" style="stop-color:#5AA1D6"/>
	<stop  offset="0.6351" style="stop-color:#5696CB"/>
	<stop  offset="0.7107" style="stop-color:#5086BC"/>
	<stop  offset="0.7885" style="stop-color:#4772AA"/>
	<stop  offset="0.8678" style="stop-color:#3B5B96"/>
	<stop  offset="0.9473" style="stop-color:#303F81"/>
	<stop  offset="1" style="stop-color:#282A73"/>
</linearGradient>
<path fill="url(#SVGID_1_)" d="M205.519,75.162c-38.954,37.401-60.796,86.995-61.782,140.008h-0.047v264.3
	c0,59.894-45.891,108.621-102.299,108.621v100c54.421,0,105.476-21.958,143.758-61.83c36.611-38.131,57.269-88.315,58.482-141.791
	h0.059V333.883h75.058v-70H243.69V218.92c0-56.408,48.727-102.299,108.621-102.299v-100
	C296.968,16.622,244.836,37.412,205.519,75.162z"/>
</svg>
