<?xml version="1.0" encoding="utf-8"?>
<!DOCTYPE svg PUBLIC "-//W3C//DTD SVG 1.1//EN" "http://www.w3.org/Graphics/SVG/1.1/DTD/svg11.dtd">
<svg version="1.1" id="Layer_1" xmlns="http://www.w3.org/2000/svg" xmlns:xlink="http://www.w3.org/1999/xlink" x="0px" y="0px"
	 width="1000px" height="1000px" viewBox="0 0 1000 1000" enable-background="new 0 0 1000 1000" xml:space="preserve">
<g>

	<path id="SVGID_1_" d="M531.231,558.252c-41.637-0.146-80.568-0.695-111.045-1.67c0.705-4.229,1.037-7.221,1.686-9.984
		c20.373-88.478,48.309-192.694,77.326-269.771c1.754-4.707,2.906-9.215,8.844-9.156c37.896,0.326,75.818,0.212,113.725,0.302
		c0.832,0.002,1.676,0.357,4.188,0.941c-13.736,47.458-28.582,98.688-45.697,158.013c37.68,0.941,73.15,3.561,103.559,8.301
		c-28.93,56.211-68.025,129.413-106.855,195.722c-38.988,67.236-77.715,127.578-109.686,179.441
		c-0.541-0.361-1.082-0.727-1.621-1.09C484.578,736.383,506.162,652.66,531.231,558.252z"/>
</g>
<g>
	<path fill-rule="evenodd" clip-rule="evenodd" d="M521.072,50c45.46,0.177,82.246,35.633,81.653,78.702
		c-0.602,43.35-37.525,77.766-83.079,77.435c-44.538-0.325-80.994-35.515-80.988-78.171C438.664,84.763,475.595,49.826,521.072,50z"
		/>
	<path fill-rule="evenodd" clip-rule="evenodd" d="M316.277,108.737c42.02,0.076,74.82,31.733,74.583,71.985
		c-0.235,39.999-33.683,71.461-75.643,71.153c-40.885-0.297-74.101-32.337-74.155-71.531
		C241.005,140.447,274.396,108.658,316.277,108.737z"/>
	<path fill-rule="evenodd" clip-rule="evenodd" d="M167.015,258.719c37.45,0.271,67.284,29.338,67.058,65.331
		c-0.23,36.418-31.33,65.724-69.034,65.057c-37.099-0.657-67.662-30.456-67.371-65.683
		C97.968,287.119,128.702,258.44,167.015,258.719z"/>
	<path fill-rule="evenodd" clip-rule="evenodd" d="M111.151,460.796c33.832-0.107,61.184,25.496,61.571,57.633
		c0.398,32.89-26.657,59.374-60.913,59.631c-33.915,0.256-62.134-26.673-61.806-58.979
		C50.332,486.929,77.636,460.901,111.151,460.796z"/>
	<path fill-rule="evenodd" clip-rule="evenodd" d="M220.359,715.338c0.045,28.721-23.869,51.635-53.915,51.665
		c-30.623,0.03-55.363-23.426-55.053-52.193c0.306-28.444,24.563-51.715,54.263-52.061
		C195.73,662.397,220.315,686.028,220.359,715.338z"/>
	<path fill-rule="evenodd" clip-rule="evenodd" d="M363.665,857.947c0.271,25.686-20.908,46.247-47.611,46.23
		c-26.042-0.019-47.396-20.075-47.881-44.969c-0.487-24.944,21.696-46.428,47.917-46.421
		C342.086,812.802,363.402,833.034,363.665,857.947z"/>
	<path fill-rule="evenodd" clip-rule="evenodd" d="M561.377,911.547c-0.45,21.979-19.339,39.191-42.165,38.429
		c-22.296-0.745-39.506-18.306-39.163-39.956c0.343-21.396,18.564-38.614,40.777-38.518
		C543.559,871.599,561.827,889.642,561.377,911.547z"/>
	<path fill-rule="evenodd" clip-rule="evenodd" d="M725.73,891.266c-18.594,0.197-34.083-14.129-34.493-31.905
		c-0.422-18.271,15.254-33.606,34.247-33.503c18.394,0.104,33.872,14.982,33.944,32.641
		C759.507,876.205,744.223,891.065,725.73,891.266z"/>
	<path fill-rule="evenodd" clip-rule="evenodd" d="M902.306,714.877c0.113,14.524-11.367,25.915-26.414,26.212
		c-15.512,0.309-27.831-11.444-27.629-26.364c0.189-14.448,11.98-25.525,27.122-25.479
		C890.633,689.289,902.188,700.293,902.306,714.877z"/>
	<path fill-rule="evenodd" clip-rule="evenodd" d="M950,519.372c0.01,10.77-8.758,19.469-19.803,19.655
		c-10.934,0.184-20.319-8.46-20.619-18.986c-0.313-11.153,9.098-20.432,20.595-20.3C941.145,499.865,949.992,508.622,950,519.372z"
		/>
	<path fill-rule="evenodd" clip-rule="evenodd" d="M890.716,326.992c-5.215,3.123-10.911,9.239-15.507,8.558
		c-5.01-0.742-8.996-7.791-13.43-12.088c4.558-4.258,8.762-11.365,13.775-11.932c4.629-0.522,10.121,5.972,15.232,9.375
		C890.761,322.936,890.74,324.965,890.716,326.992z"/>
</g>
</svg>